<svg xmlns="http://www.w3.org/2000/svg" viewBox="0 0 700 200" class="rounded-sm" style=" box-shadow: none; border-radius: 12px; overflow: hidden; max-width: 100%; max-height: 100%; aspect-ratio: 700 / 200; user-select: none; cursor: default; font-family: Outfit, sans-serif; touch-action: none" tabindex="0" width="700" height="200"><rect x="0" y="0" width="700" height="200" fill="rgb(255, 255, 255)"/><defs/><g transform="translate(30, 16)" style="transition: transform 0.15s cubic-bezier(0.2, 0.8, 0.2, 1);"><g class="canvas-widget-enter" style="transform-box: fill-box; transform-origin: center center 0px;"><clipPath id="widget-clip-title"><rect x="0" y="0" width="425" height="50" rx="0"/></clipPath><g clip-path="url(#widget-clip-title)"><g font-family="Outfit, sans-serif" font-weight="400" style="cursor: move; touch-action: none;"><g transform="translate(0, 0)"><text x="0" y="20"><tspan font-size="14" fill="#374151" font-weight="normal">mina-45b</tspan><tspan font-size="14" fill="#374151" font-weight="normal">/</tspan><tspan font-size="20" font-weight="600" fill="#111827">viajaBootstrap</tspan></text></g></g></g></g></g><g transform="translate(9.287628173828125, 88.42496490478516)" style="transition: transform 0.15s cubic-bezier(0.2, 0.8, 0.2, 1);"><g class="canvas-widget-enter" style="transform-box: fill-box; transform-origin: center center 0px;"><clipPath id="widget-clip-metrics"><rect x="0" y="0" width="464.8821716308594" height="50" rx="0"/></clipPath><g clip-path="url(#widget-clip-metrics)"><g font-family="Outfit, sans-serif" font-weight="400" style="cursor: move; touch-action: none;"><g transform="translate(0, 0)"><g transform="translate(0, 0)"><text x="77.48036193847656" y="17.5" text-anchor="middle" font-size="17.5" font-weight="600" fill="#111827">0</text><g transform="translate(56.35536193847656, 28.25)"><svg width="11" height="11" viewBox="0 0 24 24" fill="#374151"><path d="M12,17.27L18.18,21L16.54,13.97L22,9.24L14.81,8.62L12,2L9.19,8.62L2,9.24L7.45,13.97L5.82,21L12,17.27Z"/></svg></g><text x="72.35536193847656" y="37.25" font-size="8.75" fill="#374151">Stars</text></g><g transform="translate(154.96072387695312, 0)"><text x="77.48036193847656" y="17.5" text-anchor="middle" font-size="17.5" font-weight="600" fill="#111827">0</text><g transform="translate(56.35536193847656, 28.25)"><svg width="11" height="11" viewBox="0 0 24 24" fill="#374151"><path d="M6,2A3,3 0 0,1 9,5C9,6.28 8.19,7.38 7.06,7.81C7.15,8.27 7.39,8.83 8,9.63C9,10.92 11,12.83 12,14.17C13,12.83 15,10.92 16,9.63C16.61,8.83 16.85,8.27 16.94,7.81C15.81,7.38 15,6.28 15,5A3,3 0 0,1 18,2A3,3 0 0,1 21,5C21,6.32 20.14,7.45 18.95,7.85C18.87,8.37 18.64,9 18,9.83C17,11.17 15,13.08 14,14.38C13.39,15.17 13.15,15.73 13.06,16.19C14.19,16.62 15,17.72 15,19A3,3 0 0,1 12,22A3,3 0 0,1 9,19C9,17.72 9.81,16.62 10.94,16.19C10.85,15.73 10.61,15.17 10,14.38C9,13.08 7,11.17 6,9.83C5.36,9 5.13,8.37 5.05,7.85C3.86,7.45 3,6.32 3,5A3,3 0 0,1 6,2M6,4A1,1 0 0,0 5,5A1,1 0 0,0 6,6A1,1 0 0,0 7,5A1,1 0 0,0 6,4M18,4A1,1 0 0,0 17,5A1,1 0 0,0 18,6A1,1 0 0,0 19,5A1,1 0 0,0 18,4M12,18A1,1 0 0,0 11,19A1,1 0 0,0 12,20A1,1 0 0,0 13,19A1,1 0 0,0 12,18Z"/></svg></g><text x="72.35536193847656" y="37.25" font-size="8.75" fill="#374151">Forks</text></g><g transform="translate(309.92144775390625, 0)"><text x="77.48036193847656" y="17.5" text-anchor="middle" font-size="17.5" font-weight="600" fill="#111827">0</text><g transform="translate(48.48036193847656, 28.25)"><svg width="11" height="11" viewBox="0 0 24 24" fill="#374151"><path d="M12,4A4,4 0 0,1 16,8A4,4 0 0,1 12,12A4,4 0 0,1 8,8A4,4 0 0,1 12,4M12,14C16.42,14 20,15.79 20,18V20H4V18C4,15.79 7.58,14 12,14Z"/></svg></g><text x="64.48036193847656" y="37.25" font-size="8.75" fill="#374151">Watchers</text></g></g></g></g></g></g><g transform="translate(20.07855224609375, 150)" style="transition: transform 0.15s cubic-bezier(0.2, 0.8, 0.2, 1);"><g class="canvas-widget-enter" style="transform-box: fill-box; transform-origin: center center 0px;"><clipPath id="widget-clip-languages"><rect x="0" y="0" width="341.096923828125" height="50" rx="0"/></clipPath><g clip-path="url(#widget-clip-languages)"><g font-family="Outfit, sans-serif" font-weight="400" style="cursor: move; touch-action: none;"><g transform="translate(0, 0)"><g transform="translate(0, 0)"><rect x="0" y="0" width="86" height="32" rx="10" fill="#fbe2dc" stroke="#ba3e1f" stroke-width="1"/><rect x="8" y="11" width="10" height="10" rx="2" fill="#e34c26"/><text x="24" y="23" font-size="20" fill="#111827" font-weight="normal">HTML</text></g><g transform="translate(94, 0)"><rect x="0" y="0" width="80" height="32" rx="10" fill="#e7deef" stroke="#542a7d" stroke-width="1"/><rect x="8" y="11" width="10" height="10" rx="2" fill="#663399"/><text x="24" y="23" font-size="20" fill="#111827" font-weight="normal">CSS</text></g><g transform="translate(182, 0)"><rect x="0" y="0" width="158" height="32" rx="10" fill="#3f3a17" stroke="#f5ea8f" stroke-width="1"/><rect x="8" y="11" width="10" height="10" rx="2" fill="#f1e05a"/><text x="24" y="23" font-size="20" fill="#ffffff" font-weight="normal">JavaScript</text></g></g></g></g></g></g><g transform="translate(552.6801452636719, 55.685813903808594)" style="transition: transform 0.15s cubic-bezier(0.2, 0.8, 0.2, 1);"><g class="canvas-widget-enter" style="transform-box: fill-box; transform-origin: center center 0px;"><clipPath id="widget-clip-githubLogo-1783503177867"><rect x="0" y="0" width="122.51620483398438" height="100" rx="0"/></clipPath><g clip-path="url(#widget-clip-githubLogo-1783503177867)"><g font-family="Outfit, sans-serif" font-weight="400" style="cursor: move; touch-action: none;"><g transform="translate(0, 0)"><g transform="translate(11.258102416992188, 0)"><svg width="100" height="100" viewBox="0 0 16 16" fill="#24292f"><path d="M8 0c4.42 0 8 3.58 8 8a8.013 8.013 0 0 1-5.45 7.59c-.4.08-.55-.17-.55-.38 0-.27.01-1.13.01-2.2 0-.75-.25-1.23-.54-1.48 1.78-.2 3.65-.88 3.65-3.95 0-.88-.31-1.59-.82-2.15.08-.2.36-1.02-.08-2.12 0 0-.67-.22-2.2.82-.64-.18-1.32-.27-2-.27-.68 0-1.36.09-2 .27-1.53-1.03-2.2-.82-2.2-.82-.44 1.1-.16 1.92-.08 2.12-.51.56-.82 1.28-.82 2.15 0 3.06 1.86 3.75 3.64 3.95-.23.2-.44.55-.51 1.07-.46.21-1.61.55-2.33-.66-.15-.24-.6-.83-1.23-.82-.67.01-.27.38.01.53.34.19.73.9.82 1.13.16.45.68 1.31 2.69.94 0 .67.01 1.3.01 1.49 0 .21-.15.45-.55.38A7.995 7.995 0 0 1 0 8c0-4.42 3.58-8 8-8Z"/></svg></g></g></g></g></g></g><g transform="translate(25.039276123046875, 40.629737854003906)" style="transition: transform 0.15s cubic-bezier(0.2, 0.8, 0.2, 1);"><g class="canvas-widget-enter" style="transform-box: fill-box; transform-origin: center center 0px;"><clipPath id="widget-clip-repoLinks-1783503257871"><rect x="0" y="0" width="407.48516845703125" height="50" rx="0"/></clipPath><g clip-path="url(#widget-clip-repoLinks-1783503257871)"><g font-family="Outfit, sans-serif" font-weight="400" style="cursor: move; touch-action: none;"><g transform="translate(0, 0)"><g transform="translate(0, 2)"><svg width="25" height="25" viewBox="0 0 24 24" fill="#374151"><path d="M3.9,12C3.9,10.29 5.29,8.9 7,8.9H11V7H7A5,5 0 0,0 2,12A5,5 0 0,0 7,17H11V15.1H7C5.29,15.1 3.9,13.71 3.9,12M8,13H16V11H8V13M17,7H13V8.9H17C18.71,8.9 20.1,10.29 20.1,12C20.1,13.71 18.71,15.1 17,15.1H13V17H17A5,5 0 0,0 22,12A5,5 0 0,0 17,7Z"/></svg></g><text x="33" y="22" font-size="20" fill="#374151">https://viajabootstrap.pages.dev/</text></g></g></g></g></g><text x="690" y="190" text-anchor="end" fill="#6b7280" opacity="0.5" font-size="12" font-family="system-ui, -apple-system, sans-serif" pointer-events="none" style="user-select: none;">githubcard.com</text></svg>